<svg xmlns="http://www.w3.org/2000/svg" viewBox="0 0 32 32">
  <rect width="32" height="32" fill="#0d0e0f"/>
  <line x1="16" y1="17" x2="15.70" y2="17.00" stroke="#ffffff" stroke-width="0.5"/><line x1="16" y1="17" x2="15.54" y2="17.11" stroke="#ffffff" stroke-width="0.5"/><line x1="16" y1="17" x2="15.42" y2="17.30" stroke="#ffffff" stroke-width="0.5"/><line x1="16" y1="17" x2="15.38" y2="17.54" stroke="#ffffff" stroke-width="0.5"/><line x1="16" y1="17" x2="15.42" y2="17.81" stroke="#ffffff" stroke-width="0.5"/><line x1="16" y1="17" x2="15.56" y2="18.09" stroke="#ffffff" stroke-width="0.5"/><line x1="16" y1="17" x2="15.81" y2="18.33" stroke="#ffffff" stroke-width="0.5"/><line x1="16" y1="17" x2="16.14" y2="18.52" stroke="#ffffff" stroke-width="0.5"/><line x1="16" y1="17" x2="16.55" y2="18.61" stroke="#ffffff" stroke-width="0.5"/><line x1="16" y1="17" x2="17.01" y2="18.58" stroke="#ffffff" stroke-width="0.5"/><line x1="16" y1="17" x2="17.48" y2="18.42" stroke="#ffffff" stroke-width="0.5"/><line x1="16" y1="17" x2="17.93" y2="18.12" stroke="#ffffff" stroke-width="0.5"/><line x1="16" y1="17" x2="18.31" y2="17.69" stroke="#ffffff" stroke-width="0.5"/><line x1="16" y1="17" x2="18.59" y2="17.13" stroke="#ffffff" stroke-width="0.5"/><line x1="16" y1="17" x2="18.72" y2="16.49" stroke="#ffffff" stroke-width="0.5"/><line x1="16" y1="17" x2="18.69" y2="15.79" stroke="#ffffff" stroke-width="0.5"/><line x1="16" y1="17" x2="18.47" y2="15.08" stroke="#ffffff" stroke-width="0.5"/><line x1="16" y1="17" x2="18.06" y2="14.41" stroke="#ffffff" stroke-width="0.5"/><line x1="16" y1="17" x2="17.47" y2="13.83" stroke="#ffffff" stroke-width="0.5"/><line x1="16" y1="17" x2="16.71" y2="13.40" stroke="#ffffff" stroke-width="0.5"/><line x1="16" y1="17" x2="15.84" y2="13.15" stroke="#ffffff" stroke-width="0.5"/><line x1="16" y1="17" x2="14.88" y2="13.12" stroke="#ffffff" stroke-width="0.5"/><line x1="16" y1="17" x2="13.91" y2="13.33" stroke="#ffffff" stroke-width="0.5"/><line x1="16" y1="17" x2="12.98" y2="13.79" stroke="#ffffff" stroke-width="0.5"/><line x1="16" y1="17" x2="12.15" y2="14.49" stroke="#ffffff" stroke-width="0.5"/><line x1="16" y1="17" x2="11.50" y2="15.41" stroke="#ffffff" stroke-width="0.5"/><line x1="16" y1="17" x2="11.06" y2="16.50" stroke="#ffffff" stroke-width="0.5"/><line x1="16" y1="17" x2="10.90" y2="17.70" stroke="#ffffff" stroke-width="0.5"/><line x1="16" y1="17" x2="11.03" y2="18.95" stroke="#ffffff" stroke-width="0.5"/><line x1="16" y1="17" x2="11.48" y2="20.17" stroke="#ffffff" stroke-width="0.5"/><line x1="16" y1="17" x2="12.23" y2="21.29" stroke="#ffffff" stroke-width="0.5"/><line x1="16" y1="17" x2="13.26" y2="22.22" stroke="#ffffff" stroke-width="0.5"/><line x1="16" y1="17" x2="14.52" y2="22.90" stroke="#ffffff" stroke-width="0.5"/><line x1="16" y1="17" x2="15.95" y2="23.28" stroke="#ffffff" stroke-width="0.5"/><line x1="16" y1="17" x2="17.47" y2="23.30" stroke="#ffffff" stroke-width="0.5"/><line x1="16" y1="17" x2="19.00" y2="22.94" stroke="#ffffff" stroke-width="0.5"/><line x1="16" y1="17" x2="20.44" y2="22.22" stroke="#ffffff" stroke-width="0.5"/><line x1="16" y1="17" x2="21.69" y2="21.14" stroke="#ffffff" stroke-width="0.5"/><line x1="16" y1="17" x2="22.69" y2="19.75" stroke="#ffffff" stroke-width="0.5"/><line x1="16" y1="17" x2="23.34" y2="18.13" stroke="#ffffff" stroke-width="0.5"/><line x1="16" y1="17" x2="23.59" y2="16.35" stroke="#ffffff" stroke-width="0.5"/><line x1="16" y1="17" x2="23.41" y2="14.52" stroke="#ffffff" stroke-width="0.5"/><line x1="16" y1="17" x2="22.78" y2="12.75" stroke="#ffffff" stroke-width="0.5"/><line x1="16" y1="17" x2="21.72" y2="11.13" stroke="#ffffff" stroke-width="0.5"/><line x1="16" y1="17" x2="20.28" y2="9.78" stroke="#ffffff" stroke-width="0.5"/><line x1="16" y1="17" x2="18.51" y2="8.79" stroke="#ffffff" stroke-width="0.5"/><line x1="16" y1="17" x2="16.52" y2="8.23" stroke="#ffffff" stroke-width="0.5"/><line x1="16" y1="17" x2="14.41" y2="8.16" stroke="#ffffff" stroke-width="0.5"/><line x1="16" y1="17" x2="12.29" y2="8.61" stroke="#ffffff" stroke-width="0.5"/><line x1="16" y1="17" x2="10.30" y2="9.56" stroke="#ffffff" stroke-width="0.5"/><line x1="16" y1="17" x2="8.55" y2="10.99" stroke="#ffffff" stroke-width="0.5"/><line x1="16" y1="17" x2="7.17" y2="12.82" stroke="#ffffff" stroke-width="0.5"/><line x1="16" y1="17" x2="6.23" y2="14.98" stroke="#ffffff" stroke-width="0.5"/><line x1="16" y1="17" x2="5.83" y2="17.35" stroke="#ffffff" stroke-width="0.5"/><line x1="16" y1="17" x2="6.01" y2="19.78" stroke="#ffffff" stroke-width="0.5"/><line x1="16" y1="17" x2="6.77" y2="22.16" stroke="#ffffff" stroke-width="0.5"/><line x1="16" y1="17" x2="8.10" y2="24.32" stroke="#ffffff" stroke-width="0.5"/><line x1="16" y1="17" x2="9.93" y2="26.15" stroke="#ffffff" stroke-width="0.5"/><line x1="16" y1="17" x2="12.19" y2="27.51" stroke="#ffffff" stroke-width="0.5"/><line x1="16" y1="17" x2="14.75" y2="28.31" stroke="#ffffff" stroke-width="0.5"/><line x1="16" y1="17" x2="17.47" y2="28.49" stroke="#ffffff" stroke-width="0.5"/><line x1="16" y1="17" x2="20.21" y2="28.01" stroke="#ffffff" stroke-width="0.5"/><line x1="16" y1="17" x2="22.80" y2="26.88" stroke="#ffffff" stroke-width="0.5"/><line x1="16" y1="17" x2="25.09" y2="25.14" stroke="#ffffff" stroke-width="0.5"/><line x1="16" y1="17" x2="26.93" y2="22.87" stroke="#ffffff" stroke-width="0.5"/><line x1="16" y1="17" x2="28.21" y2="20.18" stroke="#ffffff" stroke-width="0.5"/><line x1="16" y1="17" x2="28.82" y2="17.22" stroke="#ffffff" stroke-width="0.5"/><line x1="16" y1="17" x2="28.71" y2="14.15" stroke="#ffffff" stroke-width="0.5"/><line x1="16" y1="17" x2="27.87" y2="11.14" stroke="#ffffff" stroke-width="0.5"/><line x1="16" y1="17" x2="26.32" y2="8.38" stroke="#ffffff" stroke-width="0.5"/><line x1="16" y1="17" x2="24.12" y2="6.02" stroke="#ffffff" stroke-width="0.5"/><line x1="16" y1="17" x2="21.39" y2="4.22" stroke="#ffffff" stroke-width="0.5"/><line x1="16" y1="17" x2="18.26" y2="3.11" stroke="#ffffff" stroke-width="0.5"/><line x1="16" y1="17" x2="14.91" y2="2.75" stroke="#ffffff" stroke-width="0.5"/><line x1="16" y1="17" x2="11.52" y2="3.21" stroke="#ffffff" stroke-width="0.5"/>
  <path d="M 15.70,17.00 L 15.54,17.11 L 15.42,17.30 L 15.38,17.54 L 15.42,17.81 L 15.56,18.09 L 15.81,18.33 L 16.14,18.52 L 16.55,18.61 L 17.01,18.58 L 17.48,18.42 L 17.93,18.12 L 18.31,17.69 L 18.59,17.13 L 18.72,16.49 L 18.69,15.79 L 18.47,15.08 L 18.06,14.41 L 17.47,13.83 L 16.71,13.40 L 15.84,13.15 L 14.88,13.12 L 13.91,13.33 L 12.98,13.79 L 12.15,14.49 L 11.50,15.41 L 11.06,16.50 L 10.90,17.70 L 11.03,18.95 L 11.48,20.17 L 12.23,21.29 L 13.26,22.22 L 14.52,22.90 L 15.95,23.28 L 17.47,23.30 L 19.00,22.94 L 20.44,22.22 L 21.69,21.14 L 22.69,19.75 L 23.34,18.13 L 23.59,16.35 L 23.41,14.52 L 22.78,12.75 L 21.72,11.13 L 20.28,9.78 L 18.51,8.79 L 16.52,8.23 L 14.41,8.16 L 12.29,8.61 L 10.30,9.56 L 8.55,10.99 L 7.17,12.82 L 6.23,14.98 L 5.83,17.35 L 6.01,19.78 L 6.77,22.16 L 8.10,24.32 L 9.93,26.15 L 12.19,27.51 L 14.75,28.31 L 17.47,28.49 L 20.21,28.01 L 22.80,26.88 L 25.09,25.14 L 26.93,22.87 L 28.21,20.18 L 28.82,17.22 L 28.71,14.15 L 27.87,11.14 L 26.32,8.38 L 24.12,6.02 L 21.39,4.22 L 18.26,3.11 L 14.91,2.75 L 11.52,3.21" stroke="#ffffff" stroke-width="0.6" fill="none"/>
  <circle cx="16" cy="17" r="0.6" fill="#ffffff"/>
</svg>